<svg width="320" height="210" viewBox="0 0 320 210" fill="none" xmlns="http://www.w3.org/2000/svg">
  <defs>
    <linearGradient id="cbg" x1="0" y1="0" x2="1" y2="1">
      <stop offset="0" stop-color="#F7FBFF"/>
      <stop offset="1" stop-color="#E3ECF6"/>
    </linearGradient>
    <linearGradient id="cdeep" x1="0" y1="0" x2="0" y2="1">
      <stop offset="0" stop-color="#0F4C81"/>
      <stop offset="1" stop-color="#0C3C66"/>
    </linearGradient>
    <filter id="cshadow" x="-20%" y="-20%" width="140%" height="140%">
      <feDropShadow dx="0" dy="10" stdDeviation="12" flood-color="#0F2E4F" flood-opacity="0.2"/>
    </filter>
  </defs>

  <rect width="320" height="210" rx="18" fill="url(#cbg)"/>
  <rect x="14" y="16" width="292" height="178" rx="16" fill="#FFFFFF" filter="url(#cshadow)"/>

  <rect x="34" y="34" width="190" height="86" rx="14" fill="#E2EDF8"/>
  <rect x="52" y="54" width="126" height="10" rx="5" fill="#1B6AA9"/>
  <rect x="52" y="74" width="90" height="8" rx="4" fill="#9AB1C8"/>
  <rect x="52" y="92" width="110" height="8" rx="4" fill="#9AB1C8"/>

  <rect x="34" y="128" width="272" height="58" rx="16" fill="url(#cdeep)"/>
  <rect x="54" y="148" width="86" height="8" rx="4" fill="#E7F1FB"/>
  <rect x="54" y="162" width="120" height="8" rx="4" fill="#C7D6E6"/>

  <circle cx="246" cy="158" r="22" fill="#FFD9BE"/>
  <rect x="232" y="140" width="28" height="36" rx="10" fill="#1B6AA9"/>
</svg>

