<svg width="520" height="360" viewBox="0 0 520 360" fill="none" xmlns="http://www.w3.org/2000/svg">
  <defs>
    <linearGradient id="bg" x1="0" y1="0" x2="1" y2="1">
      <stop offset="0" stop-color="#F6FAFF"/>
      <stop offset="1" stop-color="#E6EFF9"/>
    </linearGradient>
    <linearGradient id="panel" x1="0" y1="0" x2="0" y2="1">
      <stop offset="0" stop-color="#0F4C81"/>
      <stop offset="1" stop-color="#0B3A63"/>
    </linearGradient>
    <linearGradient id="card" x1="0" y1="0" x2="1" y2="1">
      <stop offset="0" stop-color="#FFFFFF"/>
      <stop offset="1" stop-color="#F2F6FB"/>
    </linearGradient>
    <filter id="shadow" x="-20%" y="-20%" width="140%" height="140%">
      <feDropShadow dx="0" dy="16" stdDeviation="20" flood-color="#0F2E4F" flood-opacity="0.25"/>
    </filter>
  </defs>

  <rect width="520" height="360" rx="24" fill="url(#bg)"/>

  <rect x="26" y="26" width="468" height="308" rx="24" fill="#FFFFFF" filter="url(#shadow)"/>

  <rect x="52" y="56" width="210" height="130" rx="16" fill="#DCEAF6"/>
  <rect x="72" y="78" width="170" height="14" rx="7" fill="#0F4C81"/>
  <rect x="72" y="102" width="140" height="10" rx="5" fill="#9AB1C8"/>
  <rect x="72" y="122" width="126" height="10" rx="5" fill="#9AB1C8"/>

  <rect x="290" y="56" width="184" height="240" rx="22" fill="url(#panel)"/>
  <circle cx="332" cy="120" r="34" fill="#FFE2C8"/>
  <rect x="312" y="160" width="120" height="122" rx="24" fill="#1B6AA9"/>
  <rect x="312" y="160" width="120" height="56" rx="24" fill="#206FB1"/>

  <rect x="52" y="204" width="210" height="110" rx="18" fill="url(#card)"/>
  <circle cx="98" cy="244" r="24" fill="#FFDDBF"/>
  <rect x="128" y="230" width="92" height="12" rx="6" fill="#0F4C81"/>
  <rect x="128" y="250" width="64" height="10" rx="5" fill="#93A9C2"/>
  <rect x="128" y="268" width="78" height="10" rx="5" fill="#C0D0E2"/>

  <circle cx="456" cy="84" r="8" fill="#8FD0FF"/>
  <circle cx="436" cy="80" r="4" fill="#CDEBFF"/>
</svg>

