<svg width="320" height="210" viewBox="0 0 320 210" fill="none" xmlns="http://www.w3.org/2000/svg">
  <defs>
    <linearGradient id="kbg" x1="0" y1="0" x2="1" y2="1">
      <stop offset="0" stop-color="#F6FAFF"/>
      <stop offset="1" stop-color="#E6EFF9"/>
    </linearGradient>
    <linearGradient id="khead" x1="0" y1="0" x2="0" y2="1">
      <stop offset="0" stop-color="#0F4C81"/>
      <stop offset="1" stop-color="#1B6AA9"/>
    </linearGradient>
    <filter id="kshadow" x="-20%" y="-20%" width="140%" height="140%">
      <feDropShadow dx="0" dy="10" stdDeviation="12" flood-color="#0F2E4F" flood-opacity="0.2"/>
    </filter>
  </defs>

  <rect width="320" height="210" rx="18" fill="url(#kbg)"/>
  <rect x="16" y="16" width="288" height="178" rx="16" fill="#FFFFFF" filter="url(#kshadow)"/>

  <rect x="36" y="34" width="170" height="86" rx="12" fill="#DCEAF6"/>
  <rect x="52" y="52" width="130" height="10" rx="5" fill="url(#khead)"/>
  <rect x="52" y="72" width="100" height="8" rx="4" fill="#9AB1C8"/>
  <rect x="52" y="90" width="120" height="8" rx="4" fill="#9AB1C8"/>

  <circle cx="244" cy="82" r="26" fill="#FFD9BE"/>
  <rect x="220" y="112" width="64" height="44" rx="14" fill="#0F4C81"/>
  <rect x="220" y="112" width="64" height="22" rx="14" fill="#1B6AA9"/>

  <rect x="36" y="134" width="248" height="44" rx="12" fill="url(#khead)"/>
  <rect x="54" y="148" width="120" height="8" rx="4" fill="#E6EFF9"/>
  <rect x="54" y="162" width="90" height="8" rx="4" fill="#C7D6E6"/>
</svg>

